<svg width="20" height="21" viewBox="0 0 20 21" fill="none" xmlns="http://www.w3.org/2000/svg">
<g clip-path="url(#clip0_5135_59834)">
<path d="M10 20.5C4.5 20.5 0 16 0 10.5C0 5 4.5 0.5 10 0.5C15.5 0.5 20 5 20 10.5C20 11 19.6667 11.3333 19.1667 11.3333C18.6667 11.3333 18.3333 11 18.3333 10.5C18.3333 5.91667 14.5833 2.16667 10 2.16667C5.41667 2.16667 1.66667 5.91667 1.66667 10.5C1.66667 15.0833 5.41667 18.8333 10 18.8333C12.25 18.8333 14.3333 18 15.9167 16.4167C16.25 16.0833 16.75 16.0833 17.0833 16.4167C17.4167 16.75 17.4167 17.25 17.0833 17.5833C15.1667 19.5 12.6667 20.5 10 20.5Z" fill="black"/>
<path d="M16.6668 13.8337C14.8335 13.8337 13.3335 12.3337 13.3335 10.5003C13.3335 10.0003 13.6668 9.66699 14.1668 9.66699C14.6668 9.66699 15.0002 10.0003 15.0002 10.5003C15.0002 11.417 15.7502 12.167 16.6668 12.167C17.5835 12.167 18.3335 11.417 18.3335 10.5003C18.3335 10.0003 18.6668 9.66699 19.1668 9.66699C19.6668 9.66699 20.0002 10.0003 20.0002 10.5003C20.0002 12.3337 18.5002 13.8337 16.6668 13.8337Z" fill="black"/>
<path d="M10 15.5C7.25 15.5 5 13.25 5 10.5C5 7.75 7.25 5.5 10 5.5C12.75 5.5 15 7.75 15 10.5C15 13.25 12.75 15.5 10 15.5ZM10 7.16667C8.16667 7.16667 6.66667 8.66667 6.66667 10.5C6.66667 12.3333 8.16667 13.8333 10 13.8333C11.8333 13.8333 13.3333 12.3333 13.3333 10.5C13.3333 8.66667 11.8333 7.16667 10 7.16667Z" fill="black"/>
<path d="M14.1668 11.3333C13.6668 11.3333 13.3335 11 13.3335 10.5V6.33333C13.3335 5.83333 13.6668 5.5 14.1668 5.5C14.6668 5.5 15.0002 5.83333 15.0002 6.33333V10.5C15.0002 11 14.6668 11.3333 14.1668 11.3333Z" fill="black"/>
</g>
<defs>
<clipPath id="clip0_5135_59834">
<rect width="20" height="20" fill="white" transform="translate(0 0.5)"/>
</clipPath>
</defs>
</svg>
