<svg width="24" height="25" viewBox="0 0 24 25" fill="none" xmlns="http://www.w3.org/2000/svg">
<path d="M15.8299 14.3204C15.6791 14.1584 15.4979 14.0278 15.2965 13.9361C15.0951 13.8444 14.8776 13.7933 14.6565 13.7859C14.4353 13.7785 14.2149 13.8148 14.0078 13.8928C13.8008 13.9708 13.6111 14.0889 13.4499 14.2404L12.8299 14.8504C12.8299 14.8504 12.6799 14.8504 12.5599 14.7704L9.72986 11.9404C9.61986 11.8204 9.61986 11.6904 9.64986 11.6704L10.2699 11.0504C10.5721 10.7222 10.7322 10.2877 10.7154 9.84187C10.6985 9.396 10.506 8.9749 10.1799 8.67042L7.34986 5.84042C7.0413 5.52595 6.62914 5.33408 6.18986 5.30042C5.97108 5.28823 5.75218 5.32197 5.54723 5.39948C5.34229 5.47698 5.15583 5.59652 4.99986 5.75042L3.71986 6.99042C1.71986 8.99042 1.91986 12.4404 4.16986 14.6804L9.81986 20.3304C10.9397 21.4758 12.4681 22.1303 14.0699 22.1504C14.7053 22.1606 15.3365 22.0448 15.927 21.8097C16.5174 21.5745 17.0554 21.2247 17.5099 20.7804L18.7499 19.5004C19.0527 19.1705 19.2131 18.7344 19.1962 18.2869C19.1794 17.8394 18.9866 17.4166 18.6599 17.1104L15.8299 14.3204ZM17.6899 18.5004L16.4499 19.7304C15.0399 21.1504 12.5399 20.9504 10.8799 19.2904L5.22986 13.6204C3.56986 11.9604 3.36986 9.50042 4.78986 8.05042L5.99986 6.81042C6.06986 6.75042 6.19986 6.81042 6.26986 6.90042L9.11986 9.73041C9.22986 9.84042 9.22986 9.97042 9.19986 9.99042L8.58986 10.6104C8.43807 10.7725 8.31972 10.963 8.24159 11.1709C8.16345 11.3788 8.12706 11.6 8.13449 11.822C8.14192 12.044 8.19302 12.2623 8.28489 12.4645C8.37675 12.6667 8.50757 12.8488 8.66986 13.0004L11.4999 15.8304C11.6515 15.9927 11.8336 16.1235 12.0358 16.2154C12.238 16.3072 12.4563 16.3584 12.6783 16.3658C12.9002 16.3732 13.1215 16.3368 13.3294 16.2587C13.5373 16.1806 13.7277 16.0622 13.8899 15.9104L14.5099 15.3004C14.5699 15.2304 14.7099 15.3004 14.7699 15.3804L17.5999 18.2104C17.7199 18.3304 17.7099 18.5004 17.6899 18.5004ZM21.6899 10.4004C21.7216 10.5967 21.6741 10.7975 21.5579 10.9587C21.4416 11.12 21.2661 11.2285 21.0699 11.2604H20.9999C20.8218 11.2603 20.6496 11.1969 20.514 11.0815C20.3784 10.9661 20.2883 10.8062 20.2599 10.6304L20.0799 9.57042C19.8675 8.28408 19.2575 7.09659 18.3356 6.1747C17.4137 5.25281 16.2262 4.64282 14.9399 4.43042L13.8799 4.25042C13.7803 4.23731 13.6845 4.20436 13.5979 4.15352C13.5114 4.10269 13.4359 4.035 13.376 3.95446C13.3161 3.87392 13.273 3.78218 13.2492 3.68467C13.2254 3.58716 13.2214 3.48586 13.2375 3.38678C13.2535 3.2877 13.2893 3.19286 13.3427 3.10786C13.3961 3.02287 13.466 2.94946 13.5483 2.89198C13.6306 2.8345 13.7236 2.79413 13.8218 2.77325C13.9199 2.75236 14.0213 2.7514 14.1199 2.77042L15.1899 2.95042C16.7842 3.21319 18.2561 3.969 19.3987 5.11158C20.5413 6.25416 21.2971 7.72607 21.5599 9.32042L21.6899 10.4004ZM13.2499 7.50042C13.2524 7.30231 13.3323 7.11304 13.4724 6.97295C13.6125 6.83285 13.8018 6.75301 13.9999 6.75042C14.9944 6.75042 15.9482 7.1455 16.6515 7.84876C17.3548 8.55203 17.7499 9.50585 17.7499 10.5004C17.7499 10.6993 17.6708 10.8901 17.5302 11.0307C17.3895 11.1714 17.1988 11.2504 16.9999 11.2504C16.8009 11.2504 16.6102 11.1714 16.4695 11.0307C16.3289 10.8901 16.2499 10.6993 16.2499 10.5004C16.2499 9.90368 16.0128 9.33138 15.5908 8.90943C15.1689 8.48747 14.5966 8.25042 13.9999 8.25042C13.8018 8.24783 13.6125 8.16798 13.4724 8.02788C13.3323 7.88779 13.2524 7.69852 13.2499 7.50042Z" fill="black"/>
</svg>
